Nasty Nymphos 15 (1996)

Cover: 
http://imagebb.org/view.php?filename=626a64665_xlf.jpg

Preview: 
http://imagebb.org/view.php?filename=309Nasty_Nymphos_15_1996_.jpg

Info:
Format                           : AVI
Format/Info                      : Audio Video Interleave
File size                        : 645 MiB
Duration                         : 2h 17mn
Overall bit rate                 : 658 Kbps

Video
ID                               : 0
Format                           : MPEG-4 Visual
Format profile                   : Simple@L3
Format settings, BVOP            : No
Format settings, QPel            : No
Format settings, GMC             : No warppoints
Format settings, Matrix          : Default (H.263)
Codec ID                         : XVID
Codec ID/Hint                    : XviD
Duration                         : 2h 17mn
Bit rate                         : 523 Kbps
Width                            : 400 pixels
Height                           : 288 pixels
Display aspect ratio             : 1.389
Frame rate                       : 24.000 fps
Color space                      : YUV
Chroma subsampling               : 4:2:0
Bit depth                        : 8 bits
Scan type                        : Progressive
Compression mode                 : Lossy
Bits/(Pixel*Frame)               : 0.189
Stream size                      : 513 MiB (80%)
Writing library                  : ZJMedia MPEG Encoder

Audio
ID                               : 1
Format                           : MPEG Audio
Format version                   : Version 1
Format profile                   : Layer 3
Mode                             : Joint stereo
Mode extension                   : MS Stereo
Codec ID                         : 55
Codec ID/Hint                    : MP3
Duration                         : 2h 17mn
Bit rate mode                    : Constant
Bit rate                         : 128 Kbps
Channel(s)                       : 2 channels
Sampling rate                    : 44.1 KHz
Compression mode                 : Lossy
Delay relative to video          : 13ms
Stream size                      : 126 MiB (19%)
Alignment                        : Split accross interleaves
Interleave, duration             : 1000 ms (24.00 video frames)
